REM DIRINDEX 1\2,1\3,1\4,1\6,1\5\7,1\5\8
REM DIRNAME cjc114,folder01,folder02,folder03,folder04,folder05,folder06,folder07
TITLE ""
FILE "DB4500_5th_4B_43.mp3" MP3
  TRACK 01 AUDIO
    TITLE "0:"
    INDEX 01 00:00:00
  TRACK 02 AUDIO
    TITLE "2:cjc114_3179"
    INDEX 01 00:00:03
  TRACK 03 AUDIO
    TITLE "0:"
    INDEX 01 00:01:17
  TRACK 04 AUDIO
    TITLE "3:cjc114_3180"
    INDEX 01 00:01:46
  TRACK 05 AUDIO
    TITLE "0:"
    INDEX 01 00:02:53
  TRACK 06 AUDIO
    TITLE "4:cjc114_3181"
    INDEX 01 00:03:06
  TRACK 07 AUDIO
    TITLE "0:"
    INDEX 01 00:05:32
  TRACK 08 AUDIO
    TITLE "2:cjc114_3182"
    INDEX 01 00:06:10
  TRACK 09 AUDIO
    TITLE "0:"
    INDEX 01 00:07:41
  TRACK 10 AUDIO
    TITLE "3:cjc114_3183"
    INDEX 01 00:07:68
  TRACK 11 AUDIO
    TITLE "0:"
    INDEX 01 00:08:58
  TRACK 12 AUDIO
    TITLE "4:cjc114_3184"
    INDEX 01 00:09:10
  TRACK 13 AUDIO
    TITLE "0:"
    INDEX 01 00:12:40
  TRACK 14 AUDIO
    TITLE "2:cjc114_3185"
    INDEX 01 00:13:20
  TRACK 15 AUDIO
    TITLE "0:"
    INDEX 01 00:14:27
  TRACK 16 AUDIO
    TITLE "3:cjc114_3186"
    INDEX 01 00:14:54
  TRACK 17 AUDIO
    TITLE "0:"
    INDEX 01 00:15:66
  TRACK 18 AUDIO
    TITLE "4:cjc114_3187"
    INDEX 01 00:16:20
  TRACK 19 AUDIO
    TITLE "0:"
    INDEX 01 00:19:16
  TRACK 20 AUDIO
    TITLE "2:cjc114_3188"
    INDEX 01 00:19:67
  TRACK 21 AUDIO
    TITLE "0:"
    INDEX 01 00:20:71
  TRACK 22 AUDIO
    TITLE "3:cjc114_3189"
    INDEX 01 00:21:23
  TRACK 23 AUDIO
    TITLE "0:"
    INDEX 01 00:22:30
  TRACK 24 AUDIO
    TITLE "4:cjc114_3190"
    INDEX 01 00:22:56
  TRACK 25 AUDIO
    TITLE "0:"
    INDEX 01 00:27:18
  TRACK 26 AUDIO
    TITLE "2:cjc114_3191"
    INDEX 01 00:27:71
  TRACK 27 AUDIO
    TITLE "0:"
    INDEX 01 00:29:03
  TRACK 28 AUDIO
    TITLE "3:cjc114_3192"
    INDEX 01 00:29:33
  TRACK 29 AUDIO
    TITLE "0:"
    INDEX 01 00:30:40
  TRACK 30 AUDIO
    TITLE "4:cjc114_3193"
    INDEX 01 00:30:69
  TRACK 31 AUDIO
    TITLE "0:"
    INDEX 01 00:33:73
  TRACK 32 AUDIO
    TITLE "2:cjc114_3194"
    INDEX 01 00:34:51
  TRACK 33 AUDIO
    TITLE "0:"
    INDEX 01 00:37:07
  TRACK 34 AUDIO
    TITLE "3:cjc114_3195"
    INDEX 01 00:37:36
  TRACK 35 AUDIO
    TITLE "0:"
    INDEX 01 00:38:33
  TRACK 36 AUDIO
    TITLE "4:cjc114_3196"
    INDEX 01 00:38:61
  TRACK 37 AUDIO
    TITLE "0:"
    INDEX 01 00:41:36
  TRACK 38 AUDIO
    TITLE "2:cjc114_3197"
    INDEX 01 00:42:18
  TRACK 39 AUDIO
    TITLE "0:"
    INDEX 01 00:43:35
  TRACK 40 AUDIO
    TITLE "3:cjc114_3198"
    INDEX 01 00:43:64
  TRACK 41 AUDIO
    TITLE "0:"
    INDEX 01 00:44:69
  TRACK 42 AUDIO
    TITLE "4:cjc114_3199"
    INDEX 01 00:45:24
  TRACK 43 AUDIO
    TITLE "0:"
    INDEX 01 00:50:09
  TRACK 44 AUDIO
    TITLE "2:cjc114_3200"
    INDEX 01 00:50:64
  TRACK 45 AUDIO
    TITLE "0:"
    INDEX 01 00:51:65
  TRACK 46 AUDIO
    TITLE "3:cjc114_3201"
    INDEX 01 00:52:20
  TRACK 47 AUDIO
    TITLE "0:"
    INDEX 01 00:53:27
  TRACK 48 AUDIO
    TITLE "4:cjc114_3202"
    INDEX 01 00:53:57
  TRACK 49 AUDIO
    TITLE "0:"
    INDEX 01 00:58:17
  TRACK 50 AUDIO
    TITLE "2:cjc114_3203"
    INDEX 01 00:58:71
  TRACK 51 AUDIO
    TITLE "0:"
    INDEX 01 01:00:08
  TRACK 52 AUDIO
    TITLE "3:cjc114_3204"
    INDEX 01 01:00:39
  TRACK 53 AUDIO
    TITLE "0:"
    INDEX 01 01:01:44
  TRACK 54 AUDIO
    TITLE "4:cjc114_3205"
    INDEX 01 01:01:72
  TRACK 55 AUDIO
    TITLE "0:"
    INDEX 01 01:05:36
  TRACK 56 AUDIO
    TITLE "2:cjc114_3206"
    INDEX 01 01:06:08
  TRACK 57 AUDIO
    TITLE "0:"
    INDEX 01 01:09:03
  TRACK 58 AUDIO
    TITLE "3:cjc114_3207"
    INDEX 01 01:09:36
  TRACK 59 AUDIO
    TITLE "0:"
    INDEX 01 01:10:59
  TRACK 60 AUDIO
    TITLE "4:cjc114_3208"
    INDEX 01 01:11:07
  TRACK 61 AUDIO
    TITLE "0:"
    INDEX 01 01:14:55
  TRACK 62 AUDIO
    TITLE "2:cjc114_3209"
    INDEX 01 01:15:33
  TRACK 63 AUDIO
    TITLE "0:"
    INDEX 01 01:16:44
  TRACK 64 AUDIO
    TITLE "3:cjc114_3210"
    INDEX 01 01:16:73
  TRACK 65 AUDIO
    TITLE "0:"
    INDEX 01 01:18:35
  TRACK 66 AUDIO
    TITLE "4:cjc114_3211"
    INDEX 01 01:18:60
  TRACK 67 AUDIO
    TITLE "0:"
    INDEX 01 01:21:41
  TRACK 68 AUDIO
    TITLE "2:cjc114_3212"
    INDEX 01 01:22:21
  TRACK 69 AUDIO
    TITLE "0:"
    INDEX 01 01:23:34
  TRACK 70 AUDIO
    TITLE "3:cjc114_3213"
    INDEX 01 01:23:63
  TRACK 71 AUDIO
    TITLE "0:"
    INDEX 01 01:25:29
  TRACK 72 AUDIO
    TITLE "4:cjc114_3214"
    INDEX 01 01:25:58
  TRACK 73 AUDIO
    TITLE "0:"
    INDEX 01 01:28:59
  TRACK 74 AUDIO
    TITLE "2:cjc114_3215"
    INDEX 01 01:29:39
  TRACK 75 AUDIO
    TITLE "0:"
    INDEX 01 01:30:60
  TRACK 76 AUDIO
    TITLE "3:cjc114_3216"
    INDEX 01 01:31:10
  TRACK 77 AUDIO
    TITLE "0:"
    INDEX 01 01:33:56
  TRACK 78 AUDIO
    TITLE "4:cjc114_3217"
    INDEX 01 01:34:08
  TRACK 79 AUDIO
    TITLE "0:"
    INDEX 01 01:38:04
